<svg xmlns="http://www.w3.org/2000/svg" xmlns:xlink="http://www.w3.org/1999/xlink" width="290" zoomAndPan="magnify" viewBox="0 0 217.5 44.999999" height="60" preserveAspectRatio="xMidYMid meet" version="1.0"><defs><g/><clipPath id="98ec3e15ff"><path d="M 1.421875 2.746094 L 59 2.746094 L 59 40.910156 L 1.421875 40.910156 Z M 1.421875 2.746094 " clip-rule="nonzero"/></clipPath></defs><g fill="#ffffff" fill-opacity="1"><g transform="translate(64.401752, 35.526206)"><g><path d="M 7.9375 -25.21875 C 8.976562 -25.332031 10.101562 -25.390625 11.3125 -25.390625 C 11.445312 -25.390625 11.890625 -25.378906 12.640625 -25.359375 C 13.398438 -25.347656 14.140625 -25.273438 14.859375 -25.140625 C 16.253906 -24.835938 17.34375 -24.28125 18.125 -23.46875 C 18.90625 -22.65625 19.347656 -21.632812 19.453125 -20.40625 C 19.453125 -20.269531 19.453125 -20.132812 19.453125 -20 C 19.453125 -18.957031 19.171875 -17.898438 18.609375 -16.828125 C 18.046875 -15.753906 17.257812 -14.957031 16.25 -14.4375 L 15.75 -14.15625 L 16.65625 -13.65625 C 17.945312 -12.96875 18.878906 -12.09375 19.453125 -11.03125 C 20.035156 -9.957031 20.328125 -8.832031 20.328125 -7.65625 C 20.328125 -7.019531 20.242188 -6.375 20.078125 -5.71875 C 19.472656 -3.113281 17.769531 -1.46875 14.96875 -0.78125 C 14.257812 -0.59375 12.328125 -0.46875 9.171875 -0.40625 C 8.566406 -0.40625 8.019531 -0.40625 7.53125 -0.40625 C 5.800781 -0.40625 4.640625 -0.445312 4.046875 -0.53125 C 3.460938 -0.613281 2.9375 -0.914062 2.46875 -1.4375 C 2 -1.957031 1.726562 -2.472656 1.65625 -2.984375 C 1.59375 -3.492188 1.5625 -4.050781 1.5625 -4.65625 C 1.5625 -5.363281 1.585938 -6.238281 1.640625 -7.28125 C 1.835938 -11.09375 1.9375 -14.273438 1.9375 -16.828125 C 1.9375 -20.285156 1.757812 -22.617188 1.40625 -23.828125 C 1.289062 -24.179688 1.234375 -24.425781 1.234375 -24.5625 C 1.234375 -24.59375 1.25 -24.617188 1.28125 -24.640625 C 1.300781 -24.691406 2.050781 -24.757812 3.53125 -24.84375 C 5.207031 -24.957031 6.675781 -25.082031 7.9375 -25.21875 Z M 13.28125 -20.328125 C 13.09375 -20.515625 12.875 -20.628906 12.625 -20.671875 C 12.382812 -20.710938 11.710938 -20.734375 10.609375 -20.734375 C 10.253906 -20.734375 9.925781 -20.734375 9.625 -20.734375 C 8.75 -20.734375 8.160156 -20.707031 7.859375 -20.65625 L 7.359375 -20.53125 L 7.28125 -14.890625 L 8.015625 -14.96875 C 10.628906 -15.269531 12.347656 -15.972656 13.171875 -17.078125 C 13.492188 -17.515625 13.65625 -18.101562 13.65625 -18.84375 C 13.6875 -19.113281 13.703125 -19.332031 13.703125 -19.5 C 13.703125 -19.632812 13.6875 -19.753906 13.65625 -19.859375 C 13.632812 -19.972656 13.507812 -20.128906 13.28125 -20.328125 Z M 11.9375 -10.65625 C 11.4375 -10.738281 10.890625 -10.785156 10.296875 -10.796875 C 9.710938 -10.804688 9.351562 -10.8125 9.21875 -10.8125 C 8.394531 -10.8125 7.816406 -10.773438 7.484375 -10.703125 C 7.347656 -10.671875 7.257812 -10.523438 7.21875 -10.265625 C 7.175781 -10.003906 7.113281 -9.21875 7.03125 -7.90625 C 6.976562 -6.03125 6.9375 -5 6.90625 -4.8125 L 6.90625 -4.765625 C 6.90625 -4.628906 6.988281 -4.550781 7.15625 -4.53125 C 7.375 -4.5 8.035156 -4.484375 9.140625 -4.484375 C 11.222656 -4.515625 12.664062 -4.773438 13.46875 -5.265625 C 14.28125 -5.753906 14.6875 -6.632812 14.6875 -7.90625 C 14.6875 -8.726562 14.46875 -9.347656 14.03125 -9.765625 C 13.59375 -10.191406 12.894531 -10.488281 11.9375 -10.65625 Z M 11.9375 -10.65625 "/></g></g></g><g fill="#ffffff" fill-opacity="1"><g transform="translate(85.959392, 35.526206)"><g><path d="M 1.28125 -24.6875 C 1.363281 -24.738281 1.570312 -24.796875 1.90625 -24.859375 C 2.25 -24.929688 2.929688 -24.984375 3.953125 -25.015625 C 4.859375 -25.015625 5.515625 -24.9375 5.921875 -24.78125 C 6.335938 -24.632812 6.664062 -24.328125 6.90625 -23.859375 C 7.050781 -23.554688 7.128906 -23.300781 7.140625 -23.09375 C 7.148438 -22.894531 7.15625 -22.753906 7.15625 -22.671875 C 7.15625 -22.203125 7.113281 -21.28125 7.03125 -19.90625 C 6.894531 -17.6875 6.828125 -14.164062 6.828125 -9.34375 C 6.828125 -6.21875 6.847656 -4.207031 6.890625 -3.3125 C 6.929688 -2.414062 6.992188 -1.925781 7.078125 -1.84375 C 7.210938 -1.707031 7.28125 -1.5625 7.28125 -1.40625 C 7.28125 -1.238281 7.1875 -1.046875 7 -0.828125 C 6.5 -0.273438 5.96875 0.046875 5.40625 0.140625 C 4.84375 0.234375 4.453125 0.28125 4.234375 0.28125 C 3.691406 0.28125 3.238281 0.160156 2.875 -0.078125 C 2.550781 -0.359375 2.289062 -0.675781 2.09375 -1.03125 C 1.957031 -1.332031 1.867188 -1.988281 1.828125 -3 C 1.785156 -4.019531 1.738281 -6.847656 1.6875 -11.484375 C 1.601562 -18.085938 1.507812 -21.898438 1.40625 -22.921875 C 1.289062 -23.710938 1.234375 -24.242188 1.234375 -24.515625 C 1.234375 -24.597656 1.25 -24.65625 1.28125 -24.6875 Z M 1.28125 -24.6875 "/></g></g></g><g fill="#ffffff" fill-opacity="1"><g transform="translate(94.475488, 35.526206)"><g><path d="M 3.421875 -24.765625 C 3.828125 -24.878906 4.222656 -24.9375 4.609375 -24.9375 C 5.179688 -24.9375 5.796875 -24.742188 6.453125 -24.359375 C 7.117188 -23.972656 7.453125 -23.3125 7.453125 -22.375 C 7.453125 -21.445312 6.957031 -20.722656 5.96875 -20.203125 C 5.46875 -19.953125 4.988281 -19.828125 4.53125 -19.828125 C 4.007812 -19.828125 3.515625 -19.976562 3.046875 -20.28125 C 2.085938 -20.882812 1.609375 -21.679688 1.609375 -22.671875 C 1.609375 -23.078125 1.632812 -23.347656 1.6875 -23.484375 C 1.738281 -23.628906 1.90625 -23.820312 2.1875 -24.0625 C 2.625 -24.445312 3.035156 -24.679688 3.421875 -24.765625 Z M 1.890625 -18.0625 C 2.304688 -18.144531 3.019531 -18.195312 4.03125 -18.21875 C 4.882812 -18.21875 5.515625 -18.148438 5.921875 -18.015625 C 6.335938 -17.878906 6.695312 -17.632812 7 -17.28125 C 7.15625 -17.082031 7.238281 -16.90625 7.25 -16.75 C 7.269531 -16.601562 7.28125 -16.476562 7.28125 -16.375 C 7.28125 -16.039062 7.253906 -15.421875 7.203125 -14.515625 C 7.148438 -13.203125 7.082031 -10.445312 7 -6.25 C 6.9375 -3.945312 6.882812 -2.554688 6.84375 -2.078125 C 6.800781 -1.597656 6.703125 -1.234375 6.546875 -0.984375 C 6.179688 -0.515625 5.785156 -0.222656 5.359375 -0.109375 C 4.941406 -0.00390625 4.625 0.046875 4.40625 0.046875 C 4.019531 0.046875 3.660156 -0.0351562 3.328125 -0.203125 C 2.972656 -0.398438 2.644531 -0.742188 2.34375 -1.234375 L 1.890625 -1.96875 L 1.890625 -8.140625 C 1.890625 -11.816406 1.875 -14.03125 1.84375 -14.78125 C 1.820312 -15.539062 1.726562 -16.195312 1.5625 -16.75 L 1.234375 -17.890625 Z M 1.890625 -18.0625 "/></g></g></g><g fill="#ffffff" fill-opacity="1"><g transform="translate(103.156151, 35.526206)"><g><path d="M 6.125 -18.140625 C 6.707031 -18.273438 7.566406 -18.34375 8.703125 -18.34375 C 9.835938 -18.34375 10.722656 -18.273438 11.359375 -18.140625 C 11.984375 -17.972656 12.570312 -17.757812 13.125 -17.5 C 13.675781 -17.238281 14.03125 -16.988281 14.1875 -16.75 C 14.351562 -16.5 14.4375 -16.207031 14.4375 -15.875 C 14.4375 -15.65625 14.378906 -15.316406 14.265625 -14.859375 C 14.160156 -14.410156 13.875 -13.984375 13.40625 -13.578125 L 13.046875 -13.203125 L 12.390625 -13.625 C 11.671875 -14.113281 10.953125 -14.429688 10.234375 -14.578125 C 9.523438 -14.734375 8.976562 -14.8125 8.59375 -14.8125 C 8.238281 -14.8125 7.925781 -14.769531 7.65625 -14.6875 C 7.050781 -14.5 6.75 -14.0625 6.75 -13.375 C 6.75 -13.007812 6.921875 -12.695312 7.265625 -12.4375 C 7.609375 -12.175781 8.234375 -11.898438 9.140625 -11.609375 C 11.023438 -10.972656 12.363281 -10.414062 13.15625 -9.9375 C 13.957031 -9.457031 14.535156 -8.847656 14.890625 -8.109375 C 15.191406 -7.503906 15.34375 -6.75 15.34375 -5.84375 C 15.34375 -5.050781 15.238281 -4.398438 15.03125 -3.890625 C 14.832031 -3.378906 14.457031 -2.8125 13.90625 -2.1875 C 12.8125 -0.945312 11.660156 -0.257812 10.453125 -0.125 C 9.242188 0.0078125 8.429688 0.078125 8.015625 0.078125 C 6.484375 0.078125 5.003906 -0.265625 3.578125 -0.953125 C 2.015625 -1.710938 1.234375 -2.65625 1.234375 -3.78125 C 1.234375 -3.945312 1.25 -4.125 1.28125 -4.3125 C 1.363281 -4.726562 1.484375 -5.140625 1.640625 -5.546875 C 1.804688 -5.960938 1.945312 -6.171875 2.0625 -6.171875 C 2.144531 -6.171875 2.625 -5.894531 3.5 -5.34375 C 4.625 -4.632812 5.585938 -4.179688 6.390625 -3.984375 C 7.203125 -3.796875 7.816406 -3.703125 8.234375 -3.703125 C 8.722656 -3.703125 9.132812 -3.796875 9.46875 -3.984375 C 9.707031 -4.128906 9.875 -4.28125 9.96875 -4.4375 C 10.070312 -4.601562 10.125 -4.878906 10.125 -5.265625 C 10.125 -5.648438 9.929688 -5.976562 9.546875 -6.25 C 9.160156 -6.53125 8.40625 -6.875 7.28125 -7.28125 C 5.445312 -7.9375 4.128906 -8.554688 3.328125 -9.140625 C 2.421875 -9.816406 1.816406 -10.757812 1.515625 -11.96875 C 1.410156 -12.351562 1.359375 -12.722656 1.359375 -13.078125 C 1.359375 -13.984375 1.734375 -14.9375 2.484375 -15.9375 C 3.242188 -16.9375 4.457031 -17.671875 6.125 -18.140625 Z M 6.125 -18.140625 "/></g></g></g><g fill="#ffffff" fill-opacity="1"><g transform="translate(119.735798, 35.526206)"><g><path d="M 6.125 -18.140625 C 6.707031 -18.273438 7.566406 -18.34375 8.703125 -18.34375 C 9.835938 -18.34375 10.722656 -18.273438 11.359375 -18.140625 C 11.984375 -17.972656 12.570312 -17.757812 13.125 -17.5 C 13.675781 -17.238281 14.03125 -16.988281 14.1875 -16.75 C 14.351562 -16.5 14.4375 -16.207031 14.4375 -15.875 C 14.4375 -15.65625 14.378906 -15.316406 14.265625 -14.859375 C 14.160156 -14.410156 13.875 -13.984375 13.40625 -13.578125 L 13.046875 -13.203125 L 12.390625 -13.625 C 11.671875 -14.113281 10.953125 -14.429688 10.234375 -14.578125 C 9.523438 -14.734375 8.976562 -14.8125 8.59375 -14.8125 C 8.238281 -14.8125 7.925781 -14.769531 7.65625 -14.6875 C 7.050781 -14.5 6.75 -14.0625 6.75 -13.375 C 6.75 -13.007812 6.921875 -12.695312 7.265625 -12.4375 C 7.609375 -12.175781 8.234375 -11.898438 9.140625 -11.609375 C 11.023438 -10.972656 12.363281 -10.414062 13.15625 -9.9375 C 13.957031 -9.457031 14.535156 -8.847656 14.890625 -8.109375 C 15.191406 -7.503906 15.34375 -6.75 15.34375 -5.84375 C 15.34375 -5.050781 15.238281 -4.398438 15.03125 -3.890625 C 14.832031 -3.378906 14.457031 -2.8125 13.90625 -2.1875 C 12.8125 -0.945312 11.660156 -0.257812 10.453125 -0.125 C 9.242188 0.0078125 8.429688 0.078125 8.015625 0.078125 C 6.484375 0.078125 5.003906 -0.265625 3.578125 -0.953125 C 2.015625 -1.710938 1.234375 -2.65625 1.234375 -3.78125 C 1.234375 -3.945312 1.25 -4.125 1.28125 -4.3125 C 1.363281 -4.726562 1.484375 -5.140625 1.640625 -5.546875 C 1.804688 -5.960938 1.945312 -6.171875 2.0625 -6.171875 C 2.144531 -6.171875 2.625 -5.894531 3.5 -5.34375 C 4.625 -4.632812 5.585938 -4.179688 6.390625 -3.984375 C 7.203125 -3.796875 7.816406 -3.703125 8.234375 -3.703125 C 8.722656 -3.703125 9.132812 -3.796875 9.46875 -3.984375 C 9.707031 -4.128906 9.875 -4.28125 9.96875 -4.4375 C 10.070312 -4.601562 10.125 -4.878906 10.125 -5.265625 C 10.125 -5.648438 9.929688 -5.976562 9.546875 -6.25 C 9.160156 -6.53125 8.40625 -6.875 7.28125 -7.28125 C 5.445312 -7.9375 4.128906 -8.554688 3.328125 -9.140625 C 2.421875 -9.816406 1.816406 -10.757812 1.515625 -11.96875 C 1.410156 -12.351562 1.359375 -12.722656 1.359375 -13.078125 C 1.359375 -13.984375 1.734375 -14.9375 2.484375 -15.9375 C 3.242188 -16.9375 4.457031 -17.671875 6.125 -18.140625 Z M 6.125 -18.140625 "/></g></g></g><g fill="#ffffff" fill-opacity="1"><g transform="translate(136.315445, 35.526206)"><g><path d="M 7.9375 -25.21875 C 8.976562 -25.332031 10.101562 -25.390625 11.3125 -25.390625 C 11.445312 -25.390625 11.890625 -25.378906 12.640625 -25.359375 C 13.398438 -25.347656 14.140625 -25.273438 14.859375 -25.140625 C 16.253906 -24.835938 17.34375 -24.28125 18.125 -23.46875 C 18.90625 -22.65625 19.347656 -21.632812 19.453125 -20.40625 C 19.453125 -20.269531 19.453125 -20.132812 19.453125 -20 C 19.453125 -18.957031 19.171875 -17.898438 18.609375 -16.828125 C 18.046875 -15.753906 17.257812 -14.957031 16.25 -14.4375 L 15.75 -14.15625 L 16.65625 -13.65625 C 17.945312 -12.96875 18.878906 -12.09375 19.453125 -11.03125 C 20.035156 -9.957031 20.328125 -8.832031 20.328125 -7.65625 C 20.328125 -7.019531 20.242188 -6.375 20.078125 -5.71875 C 19.472656 -3.113281 17.769531 -1.46875 14.96875 -0.78125 C 14.257812 -0.59375 12.328125 -0.46875 9.171875 -0.40625 C 8.566406 -0.40625 8.019531 -0.40625 7.53125 -0.40625 C 5.800781 -0.40625 4.640625 -0.445312 4.046875 -0.53125 C 3.460938 -0.613281 2.9375 -0.914062 2.46875 -1.4375 C 2 -1.957031 1.726562 -2.472656 1.65625 -2.984375 C 1.59375 -3.492188 1.5625 -4.050781 1.5625 -4.65625 C 1.5625 -5.363281 1.585938 -6.238281 1.640625 -7.28125 C 1.835938 -11.09375 1.9375 -14.273438 1.9375 -16.828125 C 1.9375 -20.285156 1.757812 -22.617188 1.40625 -23.828125 C 1.289062 -24.179688 1.234375 -24.425781 1.234375 -24.5625 C 1.234375 -24.59375 1.25 -24.617188 1.28125 -24.640625 C 1.300781 -24.691406 2.050781 -24.757812 3.53125 -24.84375 C 5.207031 -24.957031 6.675781 -25.082031 7.9375 -25.21875 Z M 13.28125 -20.328125 C 13.09375 -20.515625 12.875 -20.628906 12.625 -20.671875 C 12.382812 -20.710938 11.710938 -20.734375 10.609375 -20.734375 C 10.253906 -20.734375 9.925781 -20.734375 9.625 -20.734375 C 8.75 -20.734375 8.160156 -20.707031 7.859375 -20.65625 L 7.359375 -20.53125 L 7.28125 -14.890625 L 8.015625 -14.96875 C 10.628906 -15.269531 12.347656 -15.972656 13.171875 -17.078125 C 13.492188 -17.515625 13.65625 -18.101562 13.65625 -18.84375 C 13.6875 -19.113281 13.703125 -19.332031 13.703125 -19.5 C 13.703125 -19.632812 13.6875 -19.753906 13.65625 -19.859375 C 13.632812 -19.972656 13.507812 -20.128906 13.28125 -20.328125 Z M 11.9375 -10.65625 C 11.4375 -10.738281 10.890625 -10.785156 10.296875 -10.796875 C 9.710938 -10.804688 9.351562 -10.8125 9.21875 -10.8125 C 8.394531 -10.8125 7.816406 -10.773438 7.484375 -10.703125 C 7.347656 -10.671875 7.257812 -10.523438 7.21875 -10.265625 C 7.175781 -10.003906 7.113281 -9.21875 7.03125 -7.90625 C 6.976562 -6.03125 6.9375 -5 6.90625 -4.8125 L 6.90625 -4.765625 C 6.90625 -4.628906 6.988281 -4.550781 7.15625 -4.53125 C 7.375 -4.5 8.035156 -4.484375 9.140625 -4.484375 C 11.222656 -4.515625 12.664062 -4.773438 13.46875 -5.265625 C 14.28125 -5.753906 14.6875 -6.632812 14.6875 -7.90625 C 14.6875 -8.726562 14.46875 -9.347656 14.03125 -9.765625 C 13.59375 -10.191406 12.894531 -10.488281 11.9375 -10.65625 Z M 11.9375 -10.65625 "/></g></g></g><g fill="#ffffff" fill-opacity="1"><g transform="translate(157.873085, 35.526206)"><g><path d="M 6.78125 -17.890625 C 7.5 -18.054688 8.191406 -18.144531 8.859375 -18.15625 C 9.535156 -18.175781 9.957031 -18.1875 10.125 -18.1875 C 11.03125 -18.1875 11.742188 -18.128906 12.265625 -18.015625 C 14.535156 -17.546875 15.972656 -16.34375 16.578125 -14.40625 C 16.742188 -13.882812 16.832031 -13.441406 16.84375 -13.078125 C 16.863281 -12.722656 16.875 -12.367188 16.875 -12.015625 C 16.875 -11.273438 16.859375 -10.175781 16.828125 -8.71875 C 16.796875 -7.675781 16.78125 -6.800781 16.78125 -6.09375 C 16.78125 -5.050781 16.8125 -4.335938 16.875 -3.953125 C 16.945312 -3.566406 17.191406 -3.375 17.609375 -3.375 C 17.640625 -3.375 17.664062 -3.375 17.6875 -3.375 C 18.039062 -3.375 18.328125 -3.414062 18.546875 -3.5 C 18.628906 -3.519531 18.6875 -3.53125 18.71875 -3.53125 C 18.75 -3.53125 18.765625 -3.519531 18.765625 -3.5 C 18.765625 -3.414062 18.691406 -3.222656 18.546875 -2.921875 C 18.140625 -1.828125 17.59375 -1.097656 16.90625 -0.734375 C 16.332031 -0.410156 15.71875 -0.25 15.0625 -0.25 C 14.757812 -0.25 14.269531 -0.320312 13.59375 -0.46875 C 12.925781 -0.625 12.382812 -1.082031 11.96875 -1.84375 L 11.71875 -2.296875 L 11.0625 -1.734375 C 10.019531 -0.828125 8.691406 -0.332031 7.078125 -0.25 C 6.910156 -0.25 6.742188 -0.25 6.578125 -0.25 C 5.398438 -0.25 4.429688 -0.429688 3.671875 -0.796875 C 2.921875 -1.171875 2.300781 -1.851562 1.8125 -2.84375 C 1.539062 -3.382812 1.375 -3.785156 1.3125 -4.046875 C 1.257812 -4.304688 1.234375 -4.878906 1.234375 -5.765625 C 1.234375 -6.585938 1.253906 -7.117188 1.296875 -7.359375 C 1.335938 -7.609375 1.46875 -7.910156 1.6875 -8.265625 C 2.289062 -9.335938 3.316406 -10.164062 4.765625 -10.75 C 6.222656 -11.34375 7.707031 -11.640625 9.21875 -11.640625 C 9.488281 -11.640625 9.757812 -11.628906 10.03125 -11.609375 L 11.4375 -11.515625 L 11.4375 -12.46875 C 11.4375 -13.070312 11.3125 -13.484375 11.0625 -13.703125 C 10.707031 -14.023438 10.175781 -14.1875 9.46875 -14.1875 C 9.21875 -14.1875 8.722656 -14.128906 7.984375 -14.015625 C 7.242188 -13.910156 6.488281 -13.53125 5.71875 -12.875 C 5.382812 -12.601562 5.054688 -12.46875 4.734375 -12.46875 C 4.679688 -12.46875 4.625 -12.46875 4.5625 -12.46875 C 3.90625 -12.570312 3.304688 -12.878906 2.765625 -13.390625 C 2.234375 -13.898438 1.96875 -14.347656 1.96875 -14.734375 C 1.96875 -14.785156 1.984375 -14.851562 2.015625 -14.9375 C 2.148438 -15.425781 2.703125 -15.972656 3.671875 -16.578125 C 4.648438 -17.179688 5.6875 -17.617188 6.78125 -17.890625 Z M 11.265625 -6.953125 L 11.359375 -8.46875 L 10.484375 -8.515625 C 10.296875 -8.515625 10.117188 -8.515625 9.953125 -8.515625 C 9.128906 -8.515625 8.367188 -8.394531 7.671875 -8.15625 C 6.972656 -7.925781 6.5 -7.582031 6.25 -7.125 C 6.082031 -6.84375 5.992188 -6.578125 5.984375 -6.328125 C 5.972656 -6.085938 5.96875 -5.953125 5.96875 -5.921875 C 5.96875 -5.515625 6.050781 -5.160156 6.21875 -4.859375 C 6.457031 -4.359375 6.796875 -4.070312 7.234375 -4 C 7.679688 -3.9375 7.984375 -3.90625 8.140625 -3.90625 C 8.691406 -3.90625 9.226562 -4.03125 9.75 -4.28125 C 10.40625 -4.601562 10.820312 -4.910156 11 -5.203125 C 11.175781 -5.492188 11.265625 -6.078125 11.265625 -6.953125 Z M 11.265625 -6.953125 "/></g></g></g><g fill="#ffffff" fill-opacity="1"><g transform="translate(177.085727, 35.526206)"><g><path d="M 2.09375 -25.015625 C 2.644531 -25.097656 3.347656 -25.148438 4.203125 -25.171875 C 4.960938 -25.171875 5.539062 -25.09375 5.9375 -24.9375 C 6.34375 -24.789062 6.695312 -24.5 7 -24.0625 C 7.15625 -23.820312 7.25 -23.628906 7.28125 -23.484375 C 7.3125 -23.347656 7.328125 -23.1875 7.328125 -23 C 7.328125 -22.832031 7.3125 -22.625 7.28125 -22.375 C 7.195312 -21.164062 7.109375 -19.203125 7.015625 -16.484375 C 6.921875 -13.773438 6.875 -12.148438 6.875 -11.609375 L 6.953125 -10.484375 L 8.515625 -12.046875 C 10.191406 -13.722656 11.273438 -15.125 11.765625 -16.25 L 12.09375 -16.90625 L 13.28125 -16.78125 C 14.707031 -16.675781 15.675781 -16.410156 16.1875 -15.984375 C 16.695312 -15.554688 16.953125 -15.148438 16.953125 -14.765625 C 16.953125 -14.523438 16.882812 -14.265625 16.75 -13.984375 C 16.53125 -13.546875 15.6875 -12.6875 14.21875 -11.40625 C 12.75 -10.132812 11.796875 -9.414062 11.359375 -9.25 C 11.328125 -9.25 11.3125 -9.238281 11.3125 -9.21875 C 11.3125 -9.019531 11.765625 -8.398438 12.671875 -7.359375 C 13.191406 -6.785156 14.148438 -5.703125 15.546875 -4.109375 C 16.953125 -2.492188 17.800781 -1.492188 18.09375 -1.109375 C 18.394531 -0.722656 18.546875 -0.488281 18.546875 -0.40625 L 18.546875 -0.375 C 18.441406 -0.289062 17.976562 -0.148438 17.15625 0.046875 C 16.382812 0.234375 15.628906 0.328125 14.890625 0.328125 C 14.785156 0.328125 14.691406 0.328125 14.609375 0.328125 C 13.585938 0.273438 12.820312 0.046875 12.3125 -0.359375 C 11.8125 -0.773438 10.890625 -1.945312 9.546875 -3.875 C 8.003906 -5.976562 7.207031 -7.03125 7.15625 -7.03125 C 7.070312 -7.03125 7.03125 -6.222656 7.03125 -4.609375 C 7.03125 -3.179688 6.972656 -2.207031 6.859375 -1.6875 C 6.753906 -1.164062 6.507812 -0.726562 6.125 -0.375 C 5.664062 0.125 5.117188 0.375 4.484375 0.375 C 4.347656 0.375 4.046875 0.335938 3.578125 0.265625 C 3.109375 0.203125 2.65625 -0.210938 2.21875 -0.984375 C 2.113281 -1.203125 2.039062 -1.914062 2 -3.125 C 1.957031 -4.332031 1.90625 -7.269531 1.84375 -11.9375 C 1.789062 -18.875 1.671875 -22.722656 1.484375 -23.484375 C 1.316406 -24.234375 1.234375 -24.660156 1.234375 -24.765625 C 1.234375 -24.816406 1.519531 -24.898438 2.09375 -25.015625 Z M 2.09375 -25.015625 "/></g></g></g><g fill="#ffffff" fill-opacity="1"><g transform="translate(196.257213, 35.526206)"><g><path d="M 7.9375 -18.015625 C 8.625 -18.128906 9.285156 -18.1875 9.921875 -18.1875 C 10.378906 -18.1875 10.84375 -18.160156 11.3125 -18.109375 C 13.644531 -17.742188 15.273438 -16.628906 16.203125 -14.765625 C 16.867188 -13.503906 17.203125 -12.335938 17.203125 -11.265625 C 17.203125 -11.046875 17.148438 -10.570312 17.046875 -9.84375 C 16.953125 -9.125 16.410156 -8.613281 15.421875 -8.3125 C 14.359375 -7.976562 12.148438 -7.8125 8.796875 -7.8125 L 6 -7.8125 L 6.171875 -6.953125 C 6.304688 -6.398438 6.441406 -6 6.578125 -5.75 C 6.710938 -5.507812 6.960938 -5.238281 7.328125 -4.9375 C 8.035156 -4.28125 8.953125 -3.953125 10.078125 -3.953125 C 10.273438 -3.953125 10.484375 -3.960938 10.703125 -3.984375 C 12.097656 -4.148438 13.398438 -4.726562 14.609375 -5.71875 L 15.75 -6.671875 L 16.09375 -6.171875 C 16.382812 -5.617188 16.53125 -5.054688 16.53125 -4.484375 C 16.53125 -4.367188 16.515625 -4.117188 16.484375 -3.734375 C 16.460938 -3.359375 16.207031 -2.921875 15.71875 -2.421875 C 14.894531 -1.492188 13.851562 -0.878906 12.59375 -0.578125 C 11.332031 -0.273438 10.25 -0.125 9.34375 -0.125 C 8.65625 -0.125 7.734375 -0.222656 6.578125 -0.421875 C 5.429688 -0.628906 4.429688 -1.175781 3.578125 -2.0625 C 2.648438 -2.96875 2.023438 -4.050781 1.703125 -5.3125 C 1.390625 -6.570312 1.234375 -7.707031 1.234375 -8.71875 C 1.234375 -9.351562 1.273438 -10 1.359375 -10.65625 C 1.628906 -12.382812 2.175781 -13.820312 3 -14.96875 C 4.15625 -16.613281 5.800781 -17.628906 7.9375 -18.015625 Z M 11.5625 -13.78125 C 11.207031 -14.03125 10.628906 -14.164062 9.828125 -14.1875 C 9.691406 -14.1875 9.570312 -14.1875 9.46875 -14.1875 C 9 -14.1875 8.601562 -14.140625 8.28125 -14.046875 C 7.96875 -13.953125 7.632812 -13.738281 7.28125 -13.40625 C 7.0625 -13.1875 6.8125 -12.800781 6.53125 -12.25 C 6.257812 -11.707031 6.125 -11.3125 6.125 -11.0625 C 6.125 -10.894531 6.144531 -10.796875 6.1875 -10.765625 C 6.226562 -10.742188 6.273438 -10.734375 6.328125 -10.734375 C 6.390625 -10.734375 6.472656 -10.75 6.578125 -10.78125 C 7.179688 -10.882812 8.816406 -11.046875 11.484375 -11.265625 C 12.054688 -11.328125 12.40625 -11.378906 12.53125 -11.421875 C 12.65625 -11.460938 12.71875 -11.578125 12.71875 -11.765625 C 12.71875 -12.066406 12.59375 -12.421875 12.34375 -12.828125 C 12.09375 -13.242188 11.832031 -13.5625 11.5625 -13.78125 Z M 11.5625 -13.78125 "/></g></g></g><g clip-path="url(#98ec3e15ff)"><path fill="#ffffff" d="M 15.695312 11.222656 C 15.722656 11.101562 15.753906 10.984375 15.785156 10.867188 C 15.9375 10.332031 16.132812 9.824219 16.359375 9.34375 C 17.324219 7.300781 18.90625 5.765625 20.820312 4.71875 C 22.652344 3.714844 24.800781 3.164062 27 3.027344 C 30.242188 2.828125 33.613281 3.546875 36.300781 5.074219 C 38.261719 6.1875 39.863281 7.730469 40.808594 9.660156 C 40.90625 9.859375 41.003906 10.058594 41.105469 10.25 C 45.539062 8.660156 49.285156 9.066406 52.132812 10.605469 C 56.511719 12.976562 58.777344 18.058594 58.140625 22.878906 C 57.449219 28.113281 53.359375 33.066406 44.816406 33.800781 L 44.816406 40.566406 C 44.816406 40.734375 44.726562 40.890625 44.582031 40.972656 C 44.4375 41.058594 44.257812 41.058594 44.113281 40.976562 C 34.792969 35.699219 25.109375 35.675781 15.054688 40.984375 C 14.910156 41.058594 14.734375 41.054688 14.59375 40.96875 C 14.453125 40.882812 14.367188 40.730469 14.367188 40.566406 L 14.367188 35.066406 C 5.558594 34.707031 1.484375 28.644531 1.765625 22.742188 C 2.046875 16.777344 6.789062 10.917969 15.695312 11.222656 Z M 15.695312 11.222656 " fill-opacity="1" fill-rule="evenodd"/><path fill="#323232" d="M 15.648438 11.160156 C 15.671875 11.058594 15.699219 10.953125 15.726562 10.851562 C 15.878906 10.3125 16.074219 9.800781 16.304688 9.316406 C 17.273438 7.261719 18.863281 5.71875 20.789062 4.664062 C 22.632812 3.65625 24.785156 3.101562 26.996094 2.964844 C 30.253906 2.769531 33.632812 3.484375 36.332031 5.019531 C 38.304688 6.140625 39.914062 7.695312 40.863281 9.632812 C 40.953125 9.816406 41.042969 9.996094 41.136719 10.171875 C 45.566406 8.597656 49.3125 9.011719 52.160156 10.550781 C 56.566406 12.933594 58.84375 18.042969 58.203125 22.886719 C 57.511719 28.132812 53.421875 33.105469 44.878906 33.859375 L 44.878906 40.570312 C 44.878906 40.757812 44.777344 40.933594 44.613281 41.027344 C 44.449219 41.125 44.25 41.125 44.082031 41.03125 C 34.78125 35.765625 25.117188 35.742188 15.085938 41.039062 C 14.921875 41.125 14.722656 41.121094 14.5625 41.023438 C 14.402344 40.929688 14.304688 40.753906 14.304688 40.570312 L 14.304688 35.125 C 5.492188 34.738281 1.421875 28.65625 1.703125 22.738281 C 1.988281 16.757812 6.730469 10.875 15.648438 11.160156 Z M 25.132812 26.910156 C 21.890625 27.453125 18.636719 28.570312 15.371094 30.257812 L 15.371094 39.695312 C 25.191406 34.761719 34.671875 34.785156 43.8125 39.667969 L 43.8125 30.953125 C 36.414062 34.636719 29.359375 32.199219 25.210938 26.988281 C 25.183594 26.964844 25.15625 26.941406 25.132812 26.910156 Z M 48.28125 15.289062 C 46.675781 15.703125 45.285156 15.539062 44.054688 14.917969 C 43.484375 14.628906 42.957031 14.238281 42.460938 13.761719 C 41.507812 12.839844 40.695312 11.582031 39.945312 10.085938 C 39.074219 8.335938 37.601562 6.945312 35.8125 5.9375 C 33.277344 4.511719 30.113281 3.847656 27.0625 4.03125 C 25.007812 4.15625 23.011719 4.667969 21.292969 5.59375 C 19.546875 6.53125 18.09375 7.902344 17.183594 9.742188 C 16.96875 10.179688 16.785156 10.636719 16.628906 11.125 C 16.480469 11.585938 16.351562 12.066406 16.261719 12.578125 C 16.117188 13.359375 16.101562 14.503906 16.1875 15.625 C 16.28125 16.816406 16.476562 17.976562 16.761719 18.636719 C 16.804688 18.730469 16.765625 18.835938 16.675781 18.878906 C 16.585938 18.925781 16.476562 18.886719 16.429688 18.796875 C 16.078125 18.132812 15.765625 16.9375 15.574219 15.695312 C 15.390625 14.511719 15.324219 13.292969 15.417969 12.453125 C 15.429688 12.375 15.4375 12.296875 15.449219 12.21875 C 7.371094 12.039062 3.027344 17.335938 2.765625 22.789062 C 2.511719 28.195312 6.277344 33.683594 14.304688 34.058594 L 14.304688 32.800781 C 13.691406 32.933594 13.117188 32.984375 12.582031 32.929688 C 12.140625 32.886719 11.722656 32.777344 11.339844 32.605469 C 10.859375 32.386719 10.429688 32.082031 10.054688 31.683594 C 9.726562 31.335938 9.441406 30.925781 9.191406 30.449219 C 9.128906 30.351562 9.15625 30.21875 9.253906 30.152344 C 9.351562 30.085938 9.480469 30.113281 9.546875 30.207031 C 9.796875 30.5 10.058594 30.746094 10.332031 30.964844 C 10.753906 31.304688 11.203125 31.527344 11.691406 31.679688 C 12 31.773438 12.324219 31.824219 12.671875 31.847656 C 13.144531 31.875 13.65625 31.84375 14.207031 31.71875 L 14.304688 31.695312 L 14.304688 30.492188 L 13.988281 30.421875 C 12.898438 30.136719 11.957031 29.703125 11.175781 29.101562 C 10.617188 28.671875 10.136719 28.160156 9.742188 27.574219 C 9.285156 26.894531 8.941406 26.113281 8.699219 25.238281 C 8.496094 24.484375 8.371094 23.664062 8.320312 22.773438 C 8.304688 22.660156 8.390625 22.550781 8.503906 22.539062 C 8.621094 22.523438 8.730469 22.605469 8.746094 22.722656 C 8.875 23.382812 9.042969 23.988281 9.242188 24.558594 C 9.570312 25.5 10.007812 26.300781 10.546875 26.988281 C 10.921875 27.464844 11.347656 27.875 11.828125 28.230469 C 12.515625 28.738281 13.320312 29.128906 14.261719 29.382812 L 14.597656 29.460938 C 17.898438 27.722656 21.1875 26.550781 24.464844 25.945312 C 24.34375 25.75 24.222656 25.539062 24.105469 25.308594 C 23.839844 24.800781 23.589844 24.214844 23.386719 23.554688 C 23.261719 23.140625 23.148438 22.699219 23.082031 22.230469 C 23.039062 21.9375 23 21.636719 23 21.324219 C 23 20.839844 23.070312 20.355469 23.164062 19.832031 C 23.171875 19.730469 23.253906 19.652344 23.355469 19.65625 C 23.457031 19.660156 23.539062 19.742188 23.539062 19.84375 C 23.601562 20.339844 23.71875 20.785156 23.820312 21.234375 C 23.882812 21.515625 23.933594 21.785156 24 22.050781 C 24.101562 22.46875 24.21875 22.867188 24.351562 23.238281 C 24.5625 23.828125 24.808594 24.347656 25.054688 24.804688 C 25.347656 25.351562 25.644531 25.800781 25.894531 26.144531 C 25.917969 26.167969 25.9375 26.191406 25.960938 26.214844 C 29.84375 31.183594 36.542969 33.488281 43.554688 29.890625 C 43.566406 29.882812 43.582031 29.875 43.597656 29.867188 C 43.605469 29.863281 43.613281 29.859375 43.621094 29.855469 C 43.75 29.789062 43.882812 29.71875 44.015625 29.644531 C 44.488281 29.371094 45.136719 28.921875 45.8125 28.21875 C 46.203125 27.816406 46.597656 27.332031 46.980469 26.753906 C 47.375 26.15625 47.75 25.460938 48.09375 24.644531 C 48.378906 23.960938 48.652344 23.207031 48.867188 22.339844 C 48.886719 22.234375 48.992188 22.160156 49.097656 22.179688 C 49.207031 22.195312 49.28125 22.300781 49.265625 22.40625 C 49.179688 23.332031 49.039062 24.160156 48.832031 24.902344 C 48.570312 25.824219 48.21875 26.605469 47.835938 27.277344 C 47.449219 27.949219 47.023438 28.503906 46.597656 28.960938 C 45.988281 29.617188 45.378906 30.070312 44.878906 30.382812 L 44.878906 31.253906 C 45.476562 31.128906 45.992188 30.9375 46.449219 30.722656 C 46.800781 30.554688 47.121094 30.378906 47.398438 30.160156 C 47.902344 29.765625 48.296875 29.292969 48.5625 28.683594 C 48.601562 28.574219 48.71875 28.511719 48.832031 28.546875 C 48.945312 28.582031 49.007812 28.699219 48.976562 28.8125 C 48.886719 29.285156 48.738281 29.714844 48.515625 30.117188 C 48.289062 30.53125 47.984375 30.894531 47.601562 31.21875 C 47.324219 31.453125 47 31.65625 46.636719 31.828125 C 46.175781 32.046875 45.640625 32.203125 45.046875 32.320312 L 44.878906 32.347656 L 44.878906 32.789062 C 52.703125 32.0625 56.511719 27.574219 57.148438 22.75 C 57.730469 18.332031 55.671875 13.664062 51.652344 11.488281 C 49.066406 10.085938 45.675781 9.734375 41.667969 11.117188 C 42.125 11.871094 42.617188 12.527344 43.144531 13.078125 C 43.5625 13.511719 43.996094 13.882812 44.46875 14.171875 C 45.519531 14.816406 46.730469 15.082031 48.191406 14.855469 C 48.3125 14.832031 48.425781 14.910156 48.453125 15.027344 C 48.476562 15.144531 48.398438 15.261719 48.28125 15.289062 Z M 48.28125 15.289062 " fill-opacity="1" fill-rule="evenodd"/></g></svg>