<svg xmlns="http://www.w3.org/2000/svg" xmlns:xlink="http://www.w3.org/1999/xlink" width="290" zoomAndPan="magnify" viewBox="0 0 217.5 44.999999" height="60" preserveAspectRatio="xMidYMid meet" version="1.0"><defs><g/><clipPath id="eb650ad69c"><path d="M 1 2.65625 L 58.539062 2.65625 L 58.539062 41.570312 L 1 41.570312 Z M 1 2.65625 " clip-rule="nonzero"/></clipPath></defs><g fill="#ff6452" fill-opacity="1"><g transform="translate(64.197195, 35.589817)"><g><path d="M 7.96875 -25.328125 C 9.019531 -25.441406 10.148438 -25.5 11.359375 -25.5 C 11.503906 -25.5 11.953125 -25.488281 12.703125 -25.46875 C 13.460938 -25.457031 14.203125 -25.382812 14.921875 -25.25 C 16.328125 -24.945312 17.421875 -24.390625 18.203125 -23.578125 C 18.992188 -22.765625 19.441406 -21.738281 19.546875 -20.5 C 19.546875 -20.363281 19.546875 -20.222656 19.546875 -20.078125 C 19.546875 -19.035156 19.265625 -17.976562 18.703125 -16.90625 C 18.140625 -15.832031 17.347656 -15.03125 16.328125 -14.5 L 15.828125 -14.21875 L 16.734375 -13.71875 C 18.035156 -13.03125 18.972656 -12.148438 19.546875 -11.078125 C 20.128906 -10.003906 20.421875 -8.875 20.421875 -7.6875 C 20.421875 -7.050781 20.335938 -6.40625 20.171875 -5.75 C 19.566406 -3.125 17.859375 -1.46875 15.046875 -0.78125 C 14.328125 -0.59375 12.382812 -0.46875 9.21875 -0.40625 C 8.613281 -0.40625 8.0625 -0.40625 7.5625 -0.40625 C 5.820312 -0.40625 4.65625 -0.445312 4.0625 -0.53125 C 3.476562 -0.613281 2.953125 -0.914062 2.484375 -1.4375 C 2.015625 -1.96875 1.742188 -2.488281 1.671875 -3 C 1.609375 -3.507812 1.578125 -4.066406 1.578125 -4.671875 C 1.578125 -5.390625 1.601562 -6.269531 1.65625 -7.3125 C 1.84375 -11.144531 1.9375 -14.34375 1.9375 -16.90625 C 1.9375 -20.375 1.757812 -22.710938 1.40625 -23.921875 C 1.289062 -24.285156 1.234375 -24.535156 1.234375 -24.671875 C 1.234375 -24.703125 1.25 -24.726562 1.28125 -24.75 C 1.3125 -24.8125 2.066406 -24.882812 3.546875 -24.96875 C 5.234375 -25.070312 6.707031 -25.191406 7.96875 -25.328125 Z M 13.34375 -20.421875 C 13.15625 -20.609375 12.9375 -20.722656 12.6875 -20.765625 C 12.4375 -20.804688 11.757812 -20.828125 10.65625 -20.828125 C 10.300781 -20.828125 9.972656 -20.828125 9.671875 -20.828125 C 8.785156 -20.828125 8.191406 -20.800781 7.890625 -20.75 L 7.390625 -20.625 L 7.3125 -14.953125 L 8.0625 -15.046875 C 10.675781 -15.347656 12.394531 -16.050781 13.21875 -17.15625 C 13.550781 -17.59375 13.71875 -18.179688 13.71875 -18.921875 C 13.75 -19.203125 13.765625 -19.425781 13.765625 -19.59375 C 13.765625 -19.726562 13.75 -19.847656 13.71875 -19.953125 C 13.6875 -20.066406 13.5625 -20.222656 13.34375 -20.421875 Z M 11.984375 -10.703125 C 11.484375 -10.785156 10.9375 -10.832031 10.34375 -10.84375 C 9.757812 -10.863281 9.394531 -10.875 9.25 -10.875 C 8.425781 -10.875 7.847656 -10.832031 7.515625 -10.75 C 7.378906 -10.71875 7.289062 -10.570312 7.25 -10.3125 C 7.207031 -10.050781 7.144531 -9.257812 7.0625 -7.9375 C 7.007812 -6.0625 6.96875 -5.023438 6.9375 -4.828125 L 6.9375 -4.796875 C 6.9375 -4.660156 7.019531 -4.578125 7.1875 -4.546875 C 7.40625 -4.515625 8.066406 -4.5 9.171875 -4.5 C 11.265625 -4.53125 12.71875 -4.789062 13.53125 -5.28125 C 14.34375 -5.78125 14.75 -6.664062 14.75 -7.9375 C 14.75 -8.757812 14.53125 -9.382812 14.09375 -9.8125 C 13.65625 -10.238281 12.953125 -10.535156 11.984375 -10.703125 Z M 11.984375 -10.703125 "/></g></g></g><g fill="#ff6452" fill-opacity="1"><g transform="translate(85.855826, 35.589817)"><g><path d="M 1.28125 -24.796875 C 1.363281 -24.847656 1.578125 -24.910156 1.921875 -24.984375 C 2.265625 -25.054688 2.945312 -25.101562 3.96875 -25.125 C 4.875 -25.125 5.535156 -25.046875 5.953125 -24.890625 C 6.367188 -24.742188 6.695312 -24.4375 6.9375 -23.96875 C 7.082031 -23.664062 7.160156 -23.410156 7.171875 -23.203125 C 7.179688 -22.992188 7.1875 -22.847656 7.1875 -22.765625 C 7.1875 -22.296875 7.144531 -21.375 7.0625 -20 C 6.925781 -17.769531 6.859375 -14.226562 6.859375 -9.375 C 6.859375 -6.238281 6.878906 -4.222656 6.921875 -3.328125 C 6.960938 -2.429688 7.023438 -1.941406 7.109375 -1.859375 C 7.242188 -1.722656 7.3125 -1.570312 7.3125 -1.40625 C 7.3125 -1.238281 7.21875 -1.046875 7.03125 -0.828125 C 6.53125 -0.273438 6 0.046875 5.4375 0.140625 C 4.875 0.242188 4.476562 0.296875 4.25 0.296875 C 3.707031 0.296875 3.253906 0.171875 2.890625 -0.078125 C 2.554688 -0.359375 2.296875 -0.675781 2.109375 -1.03125 C 1.972656 -1.332031 1.882812 -1.992188 1.84375 -3.015625 C 1.800781 -4.035156 1.75 -6.875 1.6875 -11.53125 C 1.613281 -18.164062 1.519531 -21.992188 1.40625 -23.015625 C 1.289062 -23.816406 1.234375 -24.351562 1.234375 -24.625 C 1.234375 -24.707031 1.25 -24.765625 1.28125 -24.796875 Z M 1.28125 -24.796875 "/></g></g></g><g fill="#ff6452" fill-opacity="1"><g transform="translate(94.411817, 35.589817)"><g><path d="M 3.4375 -24.875 C 3.84375 -24.988281 4.238281 -25.046875 4.625 -25.046875 C 5.207031 -25.046875 5.828125 -24.851562 6.484375 -24.46875 C 7.148438 -24.082031 7.484375 -23.421875 7.484375 -22.484375 C 7.484375 -21.546875 6.988281 -20.816406 6 -20.296875 C 5.5 -20.046875 5.015625 -19.921875 4.546875 -19.921875 C 4.023438 -19.921875 3.53125 -20.070312 3.0625 -20.375 C 2.09375 -20.976562 1.609375 -21.773438 1.609375 -22.765625 C 1.609375 -23.179688 1.632812 -23.457031 1.6875 -23.59375 C 1.75 -23.738281 1.914062 -23.929688 2.1875 -24.171875 C 2.632812 -24.554688 3.050781 -24.789062 3.4375 -24.875 Z M 1.90625 -18.140625 C 2.3125 -18.222656 3.023438 -18.28125 4.046875 -18.3125 C 4.898438 -18.3125 5.535156 -18.238281 5.953125 -18.09375 C 6.367188 -17.957031 6.726562 -17.710938 7.03125 -17.359375 C 7.195312 -17.160156 7.285156 -16.984375 7.296875 -16.828125 C 7.304688 -16.679688 7.3125 -16.554688 7.3125 -16.453125 C 7.3125 -16.117188 7.285156 -15.5 7.234375 -14.59375 C 7.179688 -13.269531 7.113281 -10.5 7.03125 -6.28125 C 6.96875 -3.96875 6.914062 -2.566406 6.875 -2.078125 C 6.832031 -1.597656 6.734375 -1.234375 6.578125 -0.984375 C 6.210938 -0.523438 5.816406 -0.238281 5.390625 -0.125 C 4.960938 -0.0078125 4.640625 0.046875 4.421875 0.046875 C 4.035156 0.046875 3.675781 -0.0351562 3.34375 -0.203125 C 2.988281 -0.398438 2.660156 -0.742188 2.359375 -1.234375 L 1.90625 -1.984375 L 1.90625 -8.1875 C 1.90625 -11.875 1.890625 -14.097656 1.859375 -14.859375 C 1.828125 -15.617188 1.734375 -16.273438 1.578125 -16.828125 L 1.234375 -17.984375 Z M 1.90625 -18.140625 "/></g></g></g><g fill="#ff6452" fill-opacity="1"><g transform="translate(103.133145, 35.589817)"><g><path d="M 6.15625 -18.21875 C 6.738281 -18.363281 7.597656 -18.4375 8.734375 -18.4375 C 9.878906 -18.4375 10.769531 -18.363281 11.40625 -18.21875 C 12.039062 -18.0625 12.632812 -17.847656 13.1875 -17.578125 C 13.738281 -17.316406 14.097656 -17.066406 14.265625 -16.828125 C 14.421875 -16.578125 14.5 -16.285156 14.5 -15.953125 C 14.5 -15.734375 14.441406 -15.394531 14.328125 -14.9375 C 14.222656 -14.488281 13.9375 -14.054688 13.46875 -13.640625 L 13.09375 -13.265625 L 12.4375 -13.671875 C 11.71875 -14.171875 11 -14.492188 10.28125 -14.640625 C 9.570312 -14.796875 9.023438 -14.875 8.640625 -14.875 C 8.273438 -14.875 7.957031 -14.832031 7.6875 -14.75 C 7.082031 -14.5625 6.78125 -14.125 6.78125 -13.4375 C 6.78125 -13.070312 6.953125 -12.757812 7.296875 -12.5 C 7.640625 -12.238281 8.265625 -11.957031 9.171875 -11.65625 C 11.078125 -11.019531 12.425781 -10.457031 13.21875 -9.96875 C 14.019531 -9.488281 14.597656 -8.878906 14.953125 -8.140625 C 15.265625 -7.535156 15.421875 -6.78125 15.421875 -5.875 C 15.421875 -5.070312 15.316406 -4.414062 15.109375 -3.90625 C 14.898438 -3.394531 14.519531 -2.820312 13.96875 -2.1875 C 12.863281 -0.945312 11.703125 -0.257812 10.484375 -0.125 C 9.273438 0.0078125 8.46875 0.078125 8.0625 0.078125 C 6.519531 0.078125 5.03125 -0.265625 3.59375 -0.953125 C 2.019531 -1.722656 1.234375 -2.671875 1.234375 -3.796875 C 1.234375 -3.960938 1.25 -4.144531 1.28125 -4.34375 C 1.363281 -4.75 1.488281 -5.160156 1.65625 -5.578125 C 1.820312 -5.992188 1.957031 -6.203125 2.0625 -6.203125 C 2.144531 -6.203125 2.628906 -5.925781 3.515625 -5.375 C 4.640625 -4.65625 5.609375 -4.195312 6.421875 -4 C 7.234375 -3.8125 7.847656 -3.71875 8.265625 -3.71875 C 8.765625 -3.71875 9.175781 -3.816406 9.5 -4.015625 C 9.75 -4.148438 9.921875 -4.300781 10.015625 -4.46875 C 10.117188 -4.632812 10.171875 -4.910156 10.171875 -5.296875 C 10.171875 -5.679688 9.976562 -6.007812 9.59375 -6.28125 C 9.207031 -6.550781 8.445312 -6.894531 7.3125 -7.3125 C 5.46875 -7.976562 4.144531 -8.597656 3.34375 -9.171875 C 2.4375 -9.859375 1.832031 -10.8125 1.53125 -12.03125 C 1.414062 -12.414062 1.359375 -12.785156 1.359375 -13.140625 C 1.359375 -14.046875 1.738281 -15 2.5 -16 C 3.257812 -17.007812 4.476562 -17.75 6.15625 -18.21875 Z M 6.15625 -18.21875 "/></g></g></g><g fill="#ff6452" fill-opacity="1"><g transform="translate(119.790462, 35.589817)"><g><path d="M 6.15625 -18.21875 C 6.738281 -18.363281 7.597656 -18.4375 8.734375 -18.4375 C 9.878906 -18.4375 10.769531 -18.363281 11.40625 -18.21875 C 12.039062 -18.0625 12.632812 -17.847656 13.1875 -17.578125 C 13.738281 -17.316406 14.097656 -17.066406 14.265625 -16.828125 C 14.421875 -16.578125 14.5 -16.285156 14.5 -15.953125 C 14.5 -15.734375 14.441406 -15.394531 14.328125 -14.9375 C 14.222656 -14.488281 13.9375 -14.054688 13.46875 -13.640625 L 13.09375 -13.265625 L 12.4375 -13.671875 C 11.71875 -14.171875 11 -14.492188 10.28125 -14.640625 C 9.570312 -14.796875 9.023438 -14.875 8.640625 -14.875 C 8.273438 -14.875 7.957031 -14.832031 7.6875 -14.75 C 7.082031 -14.5625 6.78125 -14.125 6.78125 -13.4375 C 6.78125 -13.070312 6.953125 -12.757812 7.296875 -12.5 C 7.640625 -12.238281 8.265625 -11.957031 9.171875 -11.65625 C 11.078125 -11.019531 12.425781 -10.457031 13.21875 -9.96875 C 14.019531 -9.488281 14.597656 -8.878906 14.953125 -8.140625 C 15.265625 -7.535156 15.421875 -6.78125 15.421875 -5.875 C 15.421875 -5.070312 15.316406 -4.414062 15.109375 -3.90625 C 14.898438 -3.394531 14.519531 -2.820312 13.96875 -2.1875 C 12.863281 -0.945312 11.703125 -0.257812 10.484375 -0.125 C 9.273438 0.0078125 8.46875 0.078125 8.0625 0.078125 C 6.519531 0.078125 5.03125 -0.265625 3.59375 -0.953125 C 2.019531 -1.722656 1.234375 -2.671875 1.234375 -3.796875 C 1.234375 -3.960938 1.25 -4.144531 1.28125 -4.34375 C 1.363281 -4.75 1.488281 -5.160156 1.65625 -5.578125 C 1.820312 -5.992188 1.957031 -6.203125 2.0625 -6.203125 C 2.144531 -6.203125 2.628906 -5.925781 3.515625 -5.375 C 4.640625 -4.65625 5.609375 -4.195312 6.421875 -4 C 7.234375 -3.8125 7.847656 -3.71875 8.265625 -3.71875 C 8.765625 -3.71875 9.175781 -3.816406 9.5 -4.015625 C 9.75 -4.148438 9.921875 -4.300781 10.015625 -4.46875 C 10.117188 -4.632812 10.171875 -4.910156 10.171875 -5.296875 C 10.171875 -5.679688 9.976562 -6.007812 9.59375 -6.28125 C 9.207031 -6.550781 8.445312 -6.894531 7.3125 -7.3125 C 5.46875 -7.976562 4.144531 -8.597656 3.34375 -9.171875 C 2.4375 -9.859375 1.832031 -10.8125 1.53125 -12.03125 C 1.414062 -12.414062 1.359375 -12.785156 1.359375 -13.140625 C 1.359375 -14.046875 1.738281 -15 2.5 -16 C 3.257812 -17.007812 4.476562 -17.75 6.15625 -18.21875 Z M 6.15625 -18.21875 "/></g></g></g><g fill="#ff6452" fill-opacity="1"><g transform="translate(136.44778, 35.589817)"><g><path d="M 7.96875 -25.328125 C 9.019531 -25.441406 10.148438 -25.5 11.359375 -25.5 C 11.503906 -25.5 11.953125 -25.488281 12.703125 -25.46875 C 13.460938 -25.457031 14.203125 -25.382812 14.921875 -25.25 C 16.328125 -24.945312 17.421875 -24.390625 18.203125 -23.578125 C 18.992188 -22.765625 19.441406 -21.738281 19.546875 -20.5 C 19.546875 -20.363281 19.546875 -20.222656 19.546875 -20.078125 C 19.546875 -19.035156 19.265625 -17.976562 18.703125 -16.90625 C 18.140625 -15.832031 17.347656 -15.03125 16.328125 -14.5 L 15.828125 -14.21875 L 16.734375 -13.71875 C 18.035156 -13.03125 18.972656 -12.148438 19.546875 -11.078125 C 20.128906 -10.003906 20.421875 -8.875 20.421875 -7.6875 C 20.421875 -7.050781 20.335938 -6.40625 20.171875 -5.75 C 19.566406 -3.125 17.859375 -1.46875 15.046875 -0.78125 C 14.328125 -0.59375 12.382812 -0.46875 9.21875 -0.40625 C 8.613281 -0.40625 8.0625 -0.40625 7.5625 -0.40625 C 5.820312 -0.40625 4.65625 -0.445312 4.0625 -0.53125 C 3.476562 -0.613281 2.953125 -0.914062 2.484375 -1.4375 C 2.015625 -1.96875 1.742188 -2.488281 1.671875 -3 C 1.609375 -3.507812 1.578125 -4.066406 1.578125 -4.671875 C 1.578125 -5.390625 1.601562 -6.269531 1.65625 -7.3125 C 1.84375 -11.144531 1.9375 -14.34375 1.9375 -16.90625 C 1.9375 -20.375 1.757812 -22.710938 1.40625 -23.921875 C 1.289062 -24.285156 1.234375 -24.535156 1.234375 -24.671875 C 1.234375 -24.703125 1.25 -24.726562 1.28125 -24.75 C 1.3125 -24.8125 2.066406 -24.882812 3.546875 -24.96875 C 5.234375 -25.070312 6.707031 -25.191406 7.96875 -25.328125 Z M 13.34375 -20.421875 C 13.15625 -20.609375 12.9375 -20.722656 12.6875 -20.765625 C 12.4375 -20.804688 11.757812 -20.828125 10.65625 -20.828125 C 10.300781 -20.828125 9.972656 -20.828125 9.671875 -20.828125 C 8.785156 -20.828125 8.191406 -20.800781 7.890625 -20.75 L 7.390625 -20.625 L 7.3125 -14.953125 L 8.0625 -15.046875 C 10.675781 -15.347656 12.394531 -16.050781 13.21875 -17.15625 C 13.550781 -17.59375 13.71875 -18.179688 13.71875 -18.921875 C 13.75 -19.203125 13.765625 -19.425781 13.765625 -19.59375 C 13.765625 -19.726562 13.75 -19.847656 13.71875 -19.953125 C 13.6875 -20.066406 13.5625 -20.222656 13.34375 -20.421875 Z M 11.984375 -10.703125 C 11.484375 -10.785156 10.9375 -10.832031 10.34375 -10.84375 C 9.757812 -10.863281 9.394531 -10.875 9.25 -10.875 C 8.425781 -10.875 7.847656 -10.832031 7.515625 -10.75 C 7.378906 -10.71875 7.289062 -10.570312 7.25 -10.3125 C 7.207031 -10.050781 7.144531 -9.257812 7.0625 -7.9375 C 7.007812 -6.0625 6.96875 -5.023438 6.9375 -4.828125 L 6.9375 -4.796875 C 6.9375 -4.660156 7.019531 -4.578125 7.1875 -4.546875 C 7.40625 -4.515625 8.066406 -4.5 9.171875 -4.5 C 11.265625 -4.53125 12.71875 -4.789062 13.53125 -5.28125 C 14.34375 -5.78125 14.75 -6.664062 14.75 -7.9375 C 14.75 -8.757812 14.53125 -9.382812 14.09375 -9.8125 C 13.65625 -10.238281 12.953125 -10.535156 11.984375 -10.703125 Z M 11.984375 -10.703125 "/></g></g></g><g fill="#ff6452" fill-opacity="1"><g transform="translate(158.10641, 35.589817)"><g><path d="M 6.8125 -17.984375 C 7.53125 -18.140625 8.226562 -18.222656 8.90625 -18.234375 C 9.582031 -18.253906 10.003906 -18.265625 10.171875 -18.265625 C 11.078125 -18.265625 11.789062 -18.210938 12.3125 -18.109375 C 14.601562 -17.640625 16.050781 -16.425781 16.65625 -14.46875 C 16.820312 -13.9375 16.910156 -13.492188 16.921875 -13.140625 C 16.929688 -12.785156 16.9375 -12.425781 16.9375 -12.0625 C 16.9375 -11.320312 16.925781 -10.222656 16.90625 -8.765625 C 16.875 -7.710938 16.859375 -6.828125 16.859375 -6.109375 C 16.859375 -5.066406 16.890625 -4.351562 16.953125 -3.96875 C 17.023438 -3.582031 17.269531 -3.390625 17.6875 -3.390625 C 17.71875 -3.390625 17.742188 -3.390625 17.765625 -3.390625 C 18.128906 -3.390625 18.421875 -3.429688 18.640625 -3.515625 C 18.722656 -3.535156 18.773438 -3.546875 18.796875 -3.546875 C 18.828125 -3.546875 18.84375 -3.535156 18.84375 -3.515625 C 18.84375 -3.429688 18.773438 -3.238281 18.640625 -2.9375 C 18.222656 -1.832031 17.671875 -1.101562 16.984375 -0.75 C 16.410156 -0.414062 15.789062 -0.25 15.125 -0.25 C 14.820312 -0.25 14.332031 -0.320312 13.65625 -0.46875 C 12.976562 -0.625 12.4375 -1.085938 12.03125 -1.859375 L 11.78125 -2.3125 L 11.125 -1.734375 C 10.070312 -0.828125 8.734375 -0.332031 7.109375 -0.25 C 6.941406 -0.25 6.773438 -0.25 6.609375 -0.25 C 5.421875 -0.25 4.445312 -0.429688 3.6875 -0.796875 C 2.9375 -1.171875 2.3125 -1.859375 1.8125 -2.859375 C 1.539062 -3.398438 1.375 -3.800781 1.3125 -4.0625 C 1.257812 -4.332031 1.234375 -4.90625 1.234375 -5.78125 C 1.234375 -6.613281 1.253906 -7.148438 1.296875 -7.390625 C 1.335938 -7.640625 1.46875 -7.945312 1.6875 -8.3125 C 2.300781 -9.382812 3.335938 -10.21875 4.796875 -10.8125 C 6.253906 -11.40625 7.738281 -11.703125 9.25 -11.703125 C 9.53125 -11.703125 9.804688 -11.6875 10.078125 -11.65625 L 11.484375 -11.578125 L 11.484375 -12.515625 C 11.484375 -13.128906 11.363281 -13.546875 11.125 -13.765625 C 10.757812 -14.097656 10.21875 -14.265625 9.5 -14.265625 C 9.257812 -14.265625 8.765625 -14.207031 8.015625 -14.09375 C 7.273438 -13.976562 6.519531 -13.59375 5.75 -12.9375 C 5.414062 -12.65625 5.082031 -12.515625 4.75 -12.515625 C 4.695312 -12.515625 4.644531 -12.515625 4.59375 -12.515625 C 3.925781 -12.628906 3.320312 -12.941406 2.78125 -13.453125 C 2.25 -13.960938 1.984375 -14.410156 1.984375 -14.796875 C 1.984375 -14.847656 2 -14.914062 2.03125 -15 C 2.164062 -15.5 2.722656 -16.050781 3.703125 -16.65625 C 4.679688 -17.257812 5.71875 -17.703125 6.8125 -17.984375 Z M 11.328125 -6.984375 L 11.40625 -8.515625 L 10.53125 -8.5625 C 10.34375 -8.5625 10.164062 -8.5625 10 -8.5625 C 9.175781 -8.5625 8.410156 -8.441406 7.703125 -8.203125 C 7.003906 -7.972656 6.53125 -7.625 6.28125 -7.15625 C 6.113281 -6.875 6.023438 -6.609375 6.015625 -6.359375 C 6.003906 -6.117188 6 -5.984375 6 -5.953125 C 6 -5.535156 6.078125 -5.175781 6.234375 -4.875 C 6.484375 -4.382812 6.828125 -4.101562 7.265625 -4.03125 C 7.710938 -3.957031 8.019531 -3.921875 8.1875 -3.921875 C 8.738281 -3.921875 9.273438 -4.046875 9.796875 -4.296875 C 10.453125 -4.628906 10.867188 -4.9375 11.046875 -5.21875 C 11.234375 -5.507812 11.328125 -6.097656 11.328125 -6.984375 Z M 11.328125 -6.984375 "/></g></g></g><g fill="#ff6452" fill-opacity="1"><g transform="translate(177.409057, 35.589817)"><g><path d="M 2.109375 -25.125 C 2.660156 -25.207031 3.363281 -25.265625 4.21875 -25.296875 C 4.988281 -25.296875 5.570312 -25.21875 5.96875 -25.0625 C 6.375 -24.914062 6.726562 -24.617188 7.03125 -24.171875 C 7.195312 -23.929688 7.289062 -23.738281 7.3125 -23.59375 C 7.34375 -23.457031 7.359375 -23.296875 7.359375 -23.109375 C 7.359375 -22.941406 7.34375 -22.734375 7.3125 -22.484375 C 7.226562 -21.273438 7.140625 -19.304688 7.046875 -16.578125 C 6.953125 -13.847656 6.90625 -12.207031 6.90625 -11.65625 L 6.984375 -10.53125 L 8.5625 -12.109375 C 10.238281 -13.785156 11.320312 -15.191406 11.8125 -16.328125 L 12.15625 -16.984375 L 13.34375 -16.859375 C 14.78125 -16.753906 15.753906 -16.488281 16.265625 -16.0625 C 16.773438 -15.632812 17.03125 -15.226562 17.03125 -14.84375 C 17.03125 -14.59375 16.960938 -14.328125 16.828125 -14.046875 C 16.597656 -13.609375 15.742188 -12.75 14.265625 -11.46875 C 12.796875 -10.1875 11.84375 -9.460938 11.40625 -9.296875 C 11.375 -9.296875 11.359375 -9.28125 11.359375 -9.25 C 11.359375 -9.0625 11.816406 -8.441406 12.734375 -7.390625 C 13.253906 -6.816406 14.21875 -5.734375 15.625 -4.140625 C 17.03125 -2.503906 17.882812 -1.492188 18.1875 -1.109375 C 18.488281 -0.722656 18.640625 -0.488281 18.640625 -0.40625 L 18.640625 -0.375 C 18.523438 -0.289062 18.054688 -0.148438 17.234375 0.046875 C 16.460938 0.234375 15.703125 0.328125 14.953125 0.328125 C 14.847656 0.328125 14.753906 0.328125 14.671875 0.328125 C 13.648438 0.273438 12.882812 0.046875 12.375 -0.359375 C 11.863281 -0.773438 10.9375 -1.953125 9.59375 -3.890625 C 8.050781 -6.003906 7.25 -7.0625 7.1875 -7.0625 C 7.101562 -7.0625 7.0625 -6.25 7.0625 -4.625 C 7.0625 -3.195312 7.003906 -2.21875 6.890625 -1.6875 C 6.785156 -1.164062 6.539062 -0.726562 6.15625 -0.375 C 5.6875 0.125 5.132812 0.375 4.5 0.375 C 4.363281 0.375 4.0625 0.335938 3.59375 0.265625 C 3.125 0.203125 2.671875 -0.210938 2.234375 -0.984375 C 2.117188 -1.210938 2.039062 -1.929688 2 -3.140625 C 1.957031 -4.347656 1.910156 -7.296875 1.859375 -11.984375 C 1.804688 -18.953125 1.679688 -22.820312 1.484375 -23.59375 C 1.316406 -24.34375 1.234375 -24.769531 1.234375 -24.875 C 1.234375 -24.9375 1.523438 -25.019531 2.109375 -25.125 Z M 2.109375 -25.125 "/></g></g></g><g fill="#ff6452" fill-opacity="1"><g transform="translate(196.670354, 35.589817)"><g><path d="M 7.96875 -18.109375 C 8.664062 -18.210938 9.328125 -18.265625 9.953125 -18.265625 C 10.421875 -18.265625 10.890625 -18.238281 11.359375 -18.1875 C 13.703125 -17.820312 15.34375 -16.707031 16.28125 -14.84375 C 16.945312 -13.570312 17.28125 -12.398438 17.28125 -11.328125 C 17.28125 -11.109375 17.226562 -10.628906 17.125 -9.890625 C 17.03125 -9.160156 16.488281 -8.644531 15.5 -8.34375 C 14.425781 -8.019531 12.207031 -7.859375 8.84375 -7.859375 L 6.03125 -7.859375 L 6.203125 -6.984375 C 6.335938 -6.429688 6.472656 -6.03125 6.609375 -5.78125 C 6.742188 -5.53125 6.992188 -5.253906 7.359375 -4.953125 C 8.078125 -4.296875 9 -3.96875 10.125 -3.96875 C 10.320312 -3.96875 10.53125 -3.984375 10.75 -4.015625 C 12.15625 -4.171875 13.460938 -4.75 14.671875 -5.75 L 15.828125 -6.6875 L 16.15625 -6.203125 C 16.457031 -5.648438 16.609375 -5.082031 16.609375 -4.5 C 16.609375 -4.394531 16.59375 -4.148438 16.5625 -3.765625 C 16.539062 -3.378906 16.28125 -2.9375 15.78125 -2.4375 C 14.957031 -1.5 13.910156 -0.878906 12.640625 -0.578125 C 11.378906 -0.273438 10.289062 -0.125 9.375 -0.125 C 8.6875 -0.125 7.765625 -0.226562 6.609375 -0.4375 C 5.453125 -0.644531 4.445312 -1.1875 3.59375 -2.0625 C 2.65625 -2.976562 2.023438 -4.066406 1.703125 -5.328125 C 1.390625 -6.597656 1.234375 -7.742188 1.234375 -8.765625 C 1.234375 -9.398438 1.273438 -10.046875 1.359375 -10.703125 C 1.640625 -12.441406 2.191406 -13.890625 3.015625 -15.046875 C 4.171875 -16.691406 5.820312 -17.710938 7.96875 -18.109375 Z M 11.609375 -13.84375 C 11.253906 -14.09375 10.675781 -14.234375 9.875 -14.265625 C 9.738281 -14.265625 9.613281 -14.265625 9.5 -14.265625 C 9.03125 -14.265625 8.640625 -14.210938 8.328125 -14.109375 C 8.015625 -14.015625 7.675781 -13.800781 7.3125 -13.46875 C 7.09375 -13.25 6.84375 -12.863281 6.5625 -12.3125 C 6.289062 -11.757812 6.15625 -11.363281 6.15625 -11.125 C 6.15625 -10.957031 6.175781 -10.859375 6.21875 -10.828125 C 6.257812 -10.796875 6.304688 -10.78125 6.359375 -10.78125 C 6.421875 -10.78125 6.503906 -10.796875 6.609375 -10.828125 C 7.210938 -10.941406 8.851562 -11.109375 11.53125 -11.328125 C 12.113281 -11.378906 12.460938 -11.425781 12.578125 -11.46875 C 12.703125 -11.507812 12.765625 -11.625 12.765625 -11.8125 C 12.765625 -12.125 12.640625 -12.484375 12.390625 -12.890625 C 12.148438 -13.304688 11.890625 -13.625 11.609375 -13.84375 Z M 11.609375 -13.84375 "/></g></g></g><g clip-path="url(#eb650ad69c)"><path fill="#ff6452" d="M 15.261719 11.171875 C 15.292969 11.050781 15.320312 10.929688 15.355469 10.8125 C 15.503906 10.273438 15.703125 9.765625 15.929688 9.285156 C 16.898438 7.230469 18.488281 5.6875 20.410156 4.636719 C 22.253906 3.628906 24.410156 3.074219 26.621094 2.9375 C 29.878906 2.738281 33.265625 3.457031 35.964844 4.992188 C 37.9375 6.109375 39.542969 7.664062 40.492188 9.601562 C 40.589844 9.800781 40.691406 10 40.792969 10.191406 C 45.246094 8.59375 49.011719 9.003906 51.871094 10.550781 C 56.269531 12.933594 58.546875 18.039062 57.90625 22.882812 C 57.214844 28.140625 53.105469 33.117188 44.519531 33.855469 L 44.519531 40.652344 C 44.519531 40.820312 44.429688 40.976562 44.285156 41.058594 C 44.140625 41.144531 43.960938 41.144531 43.8125 41.0625 C 34.449219 35.761719 24.722656 35.738281 14.621094 41.070312 C 14.472656 41.148438 14.296875 41.140625 14.15625 41.058594 C 14.015625 40.972656 13.925781 40.816406 13.925781 40.652344 L 13.925781 35.125 C 5.078125 34.761719 0.984375 28.671875 1.265625 22.742188 C 1.550781 16.75 6.3125 10.863281 15.261719 11.171875 Z M 15.261719 11.171875 " fill-opacity="1" fill-rule="evenodd"/><path fill="#323232" d="M 15.214844 11.105469 C 15.238281 11.003906 15.265625 10.902344 15.292969 10.796875 C 15.445312 10.253906 15.644531 9.742188 15.871094 9.257812 C 16.847656 7.191406 18.445312 5.640625 20.378906 4.582031 C 22.230469 3.570312 24.394531 3.011719 26.617188 2.875 C 29.886719 2.675781 33.285156 3.398438 35.996094 4.9375 C 37.980469 6.0625 39.59375 7.625 40.550781 9.574219 C 40.640625 9.757812 40.730469 9.9375 40.824219 10.117188 C 45.273438 8.53125 49.039062 8.945312 51.898438 10.496094 C 56.324219 12.890625 58.613281 18.023438 57.96875 22.890625 C 57.273438 28.160156 53.167969 33.152344 44.582031 33.914062 L 44.582031 40.652344 C 44.582031 40.84375 44.480469 41.019531 44.316406 41.117188 C 44.152344 41.210938 43.949219 41.210938 43.78125 41.117188 C 34.4375 35.828125 24.730469 35.804688 14.648438 41.125 C 14.484375 41.214844 14.285156 41.207031 14.125 41.113281 C 13.964844 41.015625 13.863281 40.839844 13.863281 40.652344 L 13.863281 35.183594 C 5.011719 34.796875 0.921875 28.6875 1.203125 22.742188 C 1.488281 16.730469 6.253906 10.820312 15.214844 11.105469 Z M 24.746094 26.933594 C 21.488281 27.476562 18.21875 28.601562 14.933594 30.296875 L 14.933594 39.773438 C 24.804688 34.820312 34.328125 34.84375 43.511719 39.746094 L 43.511719 30.996094 C 36.078125 34.691406 28.992188 32.242188 24.824219 27.011719 C 24.796875 26.988281 24.769531 26.960938 24.746094 26.933594 Z M 48.003906 15.253906 C 46.390625 15.671875 44.992188 15.507812 43.753906 14.882812 C 43.183594 14.59375 42.648438 14.203125 42.152344 13.71875 C 41.199219 12.796875 40.378906 11.53125 39.628906 10.027344 C 38.753906 8.269531 37.273438 6.875 35.472656 5.859375 C 32.929688 4.425781 29.746094 3.761719 26.683594 3.945312 C 24.621094 4.070312 22.613281 4.585938 20.886719 5.511719 C 19.132812 6.457031 17.671875 7.832031 16.757812 9.683594 C 16.542969 10.121094 16.359375 10.582031 16.203125 11.070312 C 16.050781 11.535156 15.921875 12.019531 15.832031 12.53125 C 15.6875 13.316406 15.671875 14.46875 15.757812 15.59375 C 15.851562 16.792969 16.046875 17.957031 16.335938 18.621094 C 16.378906 18.710938 16.339844 18.820312 16.246094 18.863281 C 16.15625 18.910156 16.046875 18.871094 16.003906 18.78125 C 15.648438 18.109375 15.332031 16.910156 15.140625 15.664062 C 14.957031 14.476562 14.890625 13.25 14.984375 12.40625 C 14.996094 12.328125 15.003906 12.25 15.015625 12.171875 C 6.898438 11.988281 2.535156 17.3125 2.273438 22.792969 C 2.015625 28.21875 5.800781 33.734375 13.863281 34.113281 L 13.863281 32.847656 C 13.246094 32.980469 12.671875 33.03125 12.136719 32.980469 C 11.6875 32.933594 11.269531 32.828125 10.886719 32.652344 C 10.402344 32.433594 9.972656 32.128906 9.59375 31.726562 C 9.265625 31.375 8.980469 30.96875 8.726562 30.484375 C 8.664062 30.386719 8.691406 30.253906 8.789062 30.1875 C 8.886719 30.121094 9.019531 30.148438 9.085938 30.246094 C 9.335938 30.539062 9.601562 30.785156 9.871094 31.003906 C 10.296875 31.34375 10.75 31.570312 11.238281 31.722656 C 11.550781 31.816406 11.878906 31.871094 12.222656 31.890625 C 12.699219 31.921875 13.214844 31.886719 13.765625 31.761719 L 13.863281 31.738281 L 13.863281 30.527344 L 13.550781 30.460938 L 13.546875 30.460938 C 12.453125 30.171875 11.503906 29.734375 10.722656 29.132812 C 10.160156 28.699219 9.679688 28.1875 9.28125 27.597656 C 8.824219 26.914062 8.476562 26.128906 8.234375 25.25 C 8.027344 24.492188 7.90625 23.671875 7.851562 22.777344 C 7.839844 22.660156 7.921875 22.554688 8.039062 22.539062 C 8.15625 22.523438 8.265625 22.605469 8.28125 22.722656 C 8.410156 23.386719 8.578125 23.996094 8.777344 24.570312 C 9.109375 25.511719 9.546875 26.320312 10.089844 27.007812 C 10.464844 27.488281 10.894531 27.902344 11.378906 28.257812 C 12.070312 28.765625 12.875 29.160156 13.820312 29.414062 L 14.160156 29.492188 C 17.476562 27.746094 20.78125 26.570312 24.074219 25.960938 C 23.953125 25.765625 23.832031 25.550781 23.710938 25.320312 C 23.445312 24.8125 23.191406 24.226562 22.992188 23.5625 C 22.863281 23.144531 22.753906 22.703125 22.683594 22.226562 C 22.640625 21.933594 22.601562 21.632812 22.601562 21.316406 C 22.601562 20.832031 22.671875 20.34375 22.769531 19.820312 C 22.773438 19.71875 22.859375 19.640625 22.960938 19.644531 C 23.0625 19.644531 23.140625 19.730469 23.140625 19.832031 C 23.207031 20.332031 23.324219 20.777344 23.425781 21.226562 C 23.488281 21.511719 23.542969 21.78125 23.605469 22.046875 C 23.710938 22.46875 23.828125 22.871094 23.960938 23.242188 C 24.167969 23.832031 24.417969 24.359375 24.664062 24.816406 C 24.960938 25.363281 25.257812 25.816406 25.507812 26.164062 C 25.53125 26.183594 25.554688 26.207031 25.574219 26.234375 C 29.476562 31.222656 36.207031 33.542969 43.253906 29.925781 C 43.265625 29.917969 43.28125 29.910156 43.292969 29.902344 C 43.304688 29.898438 43.3125 29.894531 43.320312 29.890625 C 43.449219 29.824219 43.582031 29.753906 43.714844 29.679688 C 44.191406 29.40625 44.84375 28.953125 45.523438 28.246094 C 45.910156 27.839844 46.3125 27.355469 46.695312 26.773438 C 47.089844 26.171875 47.46875 25.476562 47.8125 24.65625 C 48.097656 23.96875 48.375 23.207031 48.589844 22.339844 C 48.609375 22.230469 48.714844 22.160156 48.824219 22.175781 C 48.933594 22.195312 49.003906 22.296875 48.988281 22.40625 C 48.90625 23.335938 48.761719 24.167969 48.550781 24.914062 C 48.292969 25.839844 47.9375 26.625 47.554688 27.300781 C 47.167969 27.976562 46.738281 28.535156 46.308594 28.992188 C 45.695312 29.652344 45.085938 30.109375 44.582031 30.417969 L 44.582031 31.296875 C 45.183594 31.171875 45.703125 30.976562 46.160156 30.761719 C 46.515625 30.59375 46.835938 30.417969 47.113281 30.199219 C 47.621094 29.800781 48.015625 29.324219 48.285156 28.714844 C 48.320312 28.601562 48.441406 28.539062 48.554688 28.574219 C 48.667969 28.609375 48.730469 28.730469 48.699219 28.84375 C 48.609375 29.320312 48.457031 29.75 48.238281 30.152344 C 48.007812 30.570312 47.703125 30.9375 47.320312 31.261719 C 47.039062 31.496094 46.714844 31.699219 46.347656 31.875 C 45.882812 32.09375 45.347656 32.246094 44.75 32.367188 L 44.582031 32.394531 L 44.582031 32.835938 C 52.441406 32.109375 56.269531 27.597656 56.910156 22.75 C 57.492188 18.3125 55.425781 13.621094 51.390625 11.4375 C 48.789062 10.03125 45.382812 9.675781 41.355469 11.0625 C 41.816406 11.820312 42.3125 12.480469 42.839844 13.035156 C 43.257812 13.472656 43.695312 13.84375 44.171875 14.132812 C 45.226562 14.78125 46.445312 15.046875 47.914062 14.820312 C 48.03125 14.796875 48.148438 14.875 48.171875 14.992188 C 48.195312 15.113281 48.121094 15.226562 48.003906 15.253906 Z M 48.003906 15.253906 " fill-opacity="1" fill-rule="evenodd"/></g></svg>